<svg xmlns="http://www.w3.org/2000/svg" viewBox="0 0 512 512" width="512" height="512">
<rect width="512" height="512" fill="#0C0B09"/><path d="M0 0 L0 0.0 L8 6.5 L16 11.3 L24 13.0 L32 11.3 L40 6.5 L48 0.0 L56 -6.5 L64 -11.3 L72 -13.0 L80 -11.3 L88 -6.5 L96 -0.0 L104 6.5 L112 11.3 L120 13.0 L128 11.3 L136 6.5 L144 0.0 L152 -6.5 L160 -11.3 L168 -13.0 L176 -11.3 L184 -6.5 L192 -0.0 L200 6.5 L208 11.3 L216 13.0 L224 11.3 L232 6.5 L240 0.0 L248 -6.5 L256 -11.3 L264 -13.0 L272 -11.3 L280 -6.5 L288 -0.0 L296 6.5 L304 11.3 L312 13.0 L320 11.3 L328 6.5 L336 0.0 L344 -6.5 L352 -11.3 L360 -13.0 L368 -11.3 L376 -6.5 L384 -0.0 L392 6.5 L400 11.3 L408 13.0 L416 11.3 L424 6.5 L432 0.0 L440 -6.5 L448 -11.3 L456 -13.0 L464 -11.3 L472 -6.5 L480 -0.0 L488 6.5 L496 11.3 L504 13.0 L512 11.3" fill="none" stroke="#F4EFE6" stroke-width="0.55" opacity="0.05"/><path d="M0 30 L0 30.0 L8 37.0 L16 42.8 L24 46.3 L32 46.8 L40 44.4 L48 39.4 L56 32.7 L64 25.5 L72 19.1 L80 14.7 L88 13.0 L96 14.3 L104 18.5 L112 24.7 L120 31.8 L128 38.6 L136 43.9 L144 46.7 L152 46.5 L160 43.4 L168 37.8 L176 30.9 L184 23.8 L192 17.8 L200 14.0 L208 13.1 L216 15.1 L224 19.9 L232 26.4 L240 33.6 L248 40.1 L256 44.9 L264 46.9 L272 46.0 L280 42.2 L288 36.2 L296 29.1 L304 22.2 L312 16.6 L320 13.5 L328 13.3 L336 16.1 L344 21.4 L352 28.2 L360 35.3 L368 41.5 L376 45.7 L384 47.0 L392 45.3 L400 40.9 L408 34.5 L416 27.3 L424 20.6 L432 15.6 L440 13.2 L448 13.7 L456 17.2 L464 23.0 L472 30.0 L480 37.0 L488 42.8 L496 46.3 L504 46.8 L512 44.4" fill="none" stroke="#F4EFE6" stroke-width="0.55" opacity="0.05"/><path d="M0 60 L0 60.0 L8 67.4 L16 73.8 L24 78.5 L32 80.8 L40 80.5 L48 77.5 L56 72.3 L64 65.6 L72 58.1 L80 50.9 L88 44.8 L96 40.7 L104 39.0 L112 40.0 L120 43.6 L128 49.2 L136 56.3 L144 63.7 L152 70.8 L160 76.4 L168 80.0 L176 81.0 L184 79.3 L192 75.2 L200 69.1 L208 61.9 L216 54.4 L224 47.7 L232 42.5 L240 39.5 L248 39.2 L256 41.5 L264 46.2 L272 52.6 L280 60.0 L288 67.4 L296 73.8 L304 78.5 L312 80.8 L320 80.5 L328 77.5 L336 72.3 L344 65.6 L352 58.1 L360 50.9 L368 44.8 L376 40.7 L384 39.0 L392 40.0 L400 43.6 L408 49.2 L416 56.3 L424 63.7 L432 70.8 L440 76.4 L448 80.0 L456 81.0 L464 79.3 L472 75.2 L480 69.1 L488 61.9 L496 54.4 L504 47.7 L512 42.5" fill="none" stroke="#F4EFE6" stroke-width="0.55" opacity="0.05"/><path d="M0 90 L0 90.0 L8 97.6 L16 104.5 L24 110.1 L32 113.7 L40 115.0 L48 113.9 L56 110.6 L64 105.3 L72 98.6 L80 91.0 L88 83.3 L96 76.3 L104 70.5 L112 66.7 L120 65.0 L128 65.8 L136 68.9 L144 73.9 L152 80.5 L160 88.1 L168 95.8 L176 102.9 L184 108.8 L192 113.0 L200 114.9 L208 114.4 L216 111.7 L224 106.8 L232 100.3 L240 92.9 L248 85.2 L256 77.9 L264 71.8 L272 67.4 L280 65.2 L288 65.4 L296 67.9 L304 72.5 L312 78.8 L320 86.1 L328 93.9 L336 101.2 L344 107.5 L352 112.1 L360 114.6 L368 114.8 L376 112.6 L384 108.2 L392 102.1 L400 94.8 L408 87.1 L416 79.7 L424 73.2 L432 68.3 L440 65.6 L448 65.1 L456 67.0 L464 71.2 L472 77.1 L480 84.2 L488 91.9 L496 99.5 L504 106.1 L512 111.1" fill="none" stroke="#F4EFE6" stroke-width="0.55" opacity="0.05"/><path d="M0 120 L0 120.0 L8 134.5 L16 145.1 L24 149.0 L32 145.1 L40 134.5 L48 120.0 L56 105.5 L64 94.9 L72 91.0 L80 94.9 L88 105.5 L96 120.0 L104 134.5 L112 145.1 L120 149.0 L128 145.1 L136 134.5 L144 120.0 L152 105.5 L160 94.9 L168 91.0 L176 94.9 L184 105.5 L192 120.0 L200 134.5 L208 145.1 L216 149.0 L224 145.1 L232 134.5 L240 120.0 L248 105.5 L256 94.9 L264 91.0 L272 94.9 L280 105.5 L288 120.0 L296 134.5 L304 145.1 L312 149.0 L320 145.1 L328 134.5 L336 120.0 L344 105.5 L352 94.9 L360 91.0 L368 94.9 L376 105.5 L384 120.0 L392 134.5 L400 145.1 L408 149.0 L416 145.1 L424 134.5 L432 120.0 L440 105.5 L448 94.9 L456 91.0 L464 94.9 L472 105.5 L480 120.0 L488 134.5 L496 145.1 L504 149.0 L512 145.1" fill="none" stroke="#F4EFE6" stroke-width="0.55" opacity="0.05"/><path d="M0 150 L0 150.0 L8 155.4 L16 159.8 L24 162.4 L32 162.9 L40 161.0 L48 157.2 L56 152.1 L64 146.6 L72 141.7 L80 138.3 L88 137.0 L96 138.0 L104 141.2 L112 145.9 L120 151.4 L128 156.6 L136 160.6 L144 162.8 L152 162.6 L160 160.2 L168 156.0 L176 150.7 L184 145.3 L192 140.7 L200 137.8 L208 137.0 L216 138.6 L224 142.2 L232 147.3 L240 152.7 L248 157.8 L256 161.4 L264 163.0 L272 162.2 L280 159.3 L288 154.7 L296 149.3 L304 144.0 L312 139.8 L320 137.4 L328 137.2 L336 139.4 L344 143.4 L352 148.6 L360 154.1 L368 158.8 L376 162.0 L384 163.0 L392 161.7 L400 158.3 L408 153.4 L416 147.9 L424 142.8 L432 139.0 L440 137.1 L448 137.6 L456 140.2 L464 144.6 L472 150.0 L480 155.4 L488 159.8 L496 162.4 L504 162.9 L512 161.0" fill="none" stroke="#F4EFE6" stroke-width="0.55" opacity="0.05"/><path d="M0 180 L0 180.0 L8 186.0 L16 191.2 L24 195.0 L32 196.8 L40 196.6 L48 194.2 L56 190.0 L64 184.5 L72 178.5 L80 172.6 L88 167.7 L96 164.4 L104 163.0 L112 163.8 L120 166.7 L128 171.3 L136 177.0 L144 183.0 L152 188.7 L160 193.3 L168 196.2 L176 197.0 L184 195.6 L192 192.3 L200 187.4 L208 181.5 L216 175.5 L224 170.0 L232 165.8 L240 163.4 L248 163.2 L256 165.0 L264 168.8 L272 174.0 L280 180.0 L288 186.0 L296 191.2 L304 195.0 L312 196.8 L320 196.6 L328 194.2 L336 190.0 L344 184.5 L352 178.5 L360 172.6 L368 167.7 L376 164.4 L384 163.0 L392 163.8 L400 166.7 L408 171.3 L416 177.0 L424 183.0 L432 188.7 L440 193.3 L448 196.2 L456 197.0 L464 195.6 L472 192.3 L480 187.4 L488 181.5 L496 175.5 L504 170.0 L512 165.8" fill="none" stroke="#F4EFE6" stroke-width="0.55" opacity="0.05"/><path d="M0 210 L0 210.0 L8 216.4 L16 222.2 L24 226.8 L32 229.9 L40 231.0 L48 230.1 L56 227.3 L64 222.9 L72 217.2 L80 210.8 L88 204.4 L96 198.5 L104 193.7 L112 190.4 L120 189.0 L128 189.7 L136 192.2 L144 196.5 L152 202.1 L160 208.4 L168 214.8 L176 220.9 L184 225.8 L192 229.3 L200 230.9 L208 230.5 L216 228.2 L224 224.1 L232 218.7 L240 212.4 L248 206.0 L256 199.9 L264 194.7 L272 191.1 L280 189.2 L288 189.3 L296 191.4 L304 195.3 L312 200.6 L320 206.8 L328 213.2 L336 219.4 L344 224.7 L352 228.6 L360 230.7 L368 230.8 L376 228.9 L384 225.3 L392 220.1 L400 214.0 L408 207.6 L416 201.3 L424 195.9 L432 191.8 L440 189.5 L448 189.1 L456 190.7 L464 194.2 L472 199.1 L480 205.2 L488 211.6 L496 217.9 L504 223.5 L512 227.8" fill="none" stroke="#F4EFE6" stroke-width="0.55" opacity="0.05"/><path d="M0 240 L0 240.0 L8 252.5 L16 261.7 L24 265.0 L32 261.7 L40 252.5 L48 240.0 L56 227.5 L64 218.3 L72 215.0 L80 218.3 L88 227.5 L96 240.0 L104 252.5 L112 261.7 L120 265.0 L128 261.7 L136 252.5 L144 240.0 L152 227.5 L160 218.3 L168 215.0 L176 218.3 L184 227.5 L192 240.0 L200 252.5 L208 261.7 L216 265.0 L224 261.7 L232 252.5 L240 240.0 L248 227.5 L256 218.3 L264 215.0 L272 218.3 L280 227.5 L288 240.0 L296 252.5 L304 261.7 L312 265.0 L320 261.7 L328 252.5 L336 240.0 L344 227.5 L352 218.3 L360 215.0 L368 218.3 L376 227.5 L384 240.0 L392 252.5 L400 261.7 L408 265.0 L416 261.7 L424 252.5 L432 240.0 L440 227.5 L448 218.3 L456 215.0 L464 218.3 L472 227.5 L480 240.0 L488 252.5 L496 261.7 L504 265.0 L512 261.7" fill="none" stroke="#F4EFE6" stroke-width="0.55" opacity="0.05"/><path d="M0 270 L0 270.0 L8 282.0 L16 291.8 L24 297.8 L32 298.7 L40 294.6 L48 286.0 L56 274.6 L64 262.4 L72 251.5 L80 243.9 L88 241.0 L96 243.3 L104 250.3 L112 260.9 L120 273.1 L128 284.7 L136 293.7 L144 298.5 L152 298.2 L160 292.8 L168 283.4 L176 271.5 L184 259.4 L192 249.2 L200 242.7 L208 241.1 L216 244.6 L224 252.7 L232 263.9 L240 276.1 L248 287.3 L256 295.4 L264 298.9 L272 297.3 L280 290.8 L288 280.6 L296 268.5 L304 256.6 L312 247.2 L320 241.8 L328 241.5 L336 246.3 L344 255.3 L352 266.9 L360 279.1 L368 289.7 L376 296.7 L384 299.0 L392 296.1 L400 288.5 L408 277.6 L416 265.4 L424 254.0 L432 245.4 L440 241.3 L448 242.2 L456 248.2 L464 258.0 L472 270.0 L480 282.0 L488 291.8 L496 297.8 L504 298.7 L512 294.6" fill="none" stroke="#F4EFE6" stroke-width="0.55" opacity="0.05"/><path d="M0 300 L0 300.0 L8 304.6 L16 308.6 L24 311.4 L32 312.9 L40 312.7 L48 310.8 L56 307.6 L64 303.5 L72 298.8 L80 294.4 L88 290.6 L96 288.0 L104 287.0 L112 287.6 L120 289.8 L128 293.3 L136 297.7 L144 302.3 L152 306.7 L160 310.2 L168 312.4 L176 313.0 L184 312.0 L192 309.4 L200 305.6 L208 301.2 L216 296.5 L224 292.4 L232 289.2 L240 287.3 L248 287.1 L256 288.6 L264 291.4 L272 295.4 L280 300.0 L288 304.6 L296 308.6 L304 311.4 L312 312.9 L320 312.7 L328 310.8 L336 307.6 L344 303.5 L352 298.8 L360 294.4 L368 290.6 L376 288.0 L384 287.0 L392 287.6 L400 289.8 L408 293.3 L416 297.7 L424 302.3 L432 306.7 L440 310.2 L448 312.4 L456 313.0 L464 312.0 L472 309.4 L480 305.6 L488 301.2 L496 296.5 L504 292.4 L512 289.2" fill="none" stroke="#F4EFE6" stroke-width="0.55" opacity="0.05"/><path d="M0 330 L0 330.0 L8 335.2 L16 339.9 L24 343.6 L32 346.1 L40 347.0 L48 346.3 L56 344.0 L64 340.4 L72 335.8 L80 330.7 L88 325.4 L96 320.7 L104 316.8 L112 314.1 L120 313.0 L128 313.5 L136 315.6 L144 319.1 L152 323.6 L160 328.7 L168 333.9 L176 338.8 L184 342.8 L192 345.6 L200 346.9 L208 346.6 L216 344.7 L224 341.4 L232 337.0 L240 332.0 L248 326.7 L256 321.8 L264 317.6 L272 314.7 L280 313.2 L288 313.3 L296 315.0 L304 318.1 L312 322.4 L320 327.4 L328 332.6 L336 337.6 L344 341.9 L352 345.0 L360 346.7 L368 346.8 L376 345.3 L384 342.4 L392 338.2 L400 333.3 L408 328.0 L416 323.0 L424 318.6 L432 315.3 L440 313.4 L448 313.1 L456 314.4 L464 317.2 L472 321.2 L480 326.1 L488 331.3 L496 336.4 L504 340.9 L512 344.4" fill="none" stroke="#F4EFE6" stroke-width="0.55" opacity="0.05"/><path d="M0 360 L0 360.0 L8 370.5 L16 378.2 L24 381.0 L32 378.2 L40 370.5 L48 360.0 L56 349.5 L64 341.8 L72 339.0 L80 341.8 L88 349.5 L96 360.0 L104 370.5 L112 378.2 L120 381.0 L128 378.2 L136 370.5 L144 360.0 L152 349.5 L160 341.8 L168 339.0 L176 341.8 L184 349.5 L192 360.0 L200 370.5 L208 378.2 L216 381.0 L224 378.2 L232 370.5 L240 360.0 L248 349.5 L256 341.8 L264 339.0 L272 341.8 L280 349.5 L288 360.0 L296 370.5 L304 378.2 L312 381.0 L320 378.2 L328 370.5 L336 360.0 L344 349.5 L352 341.8 L360 339.0 L368 341.8 L376 349.5 L384 360.0 L392 370.5 L400 378.2 L408 381.0 L416 378.2 L424 370.5 L432 360.0 L440 349.5 L448 341.8 L456 339.0 L464 341.8 L472 349.5 L480 360.0 L488 370.5 L496 378.2 L504 381.0 L512 378.2" fill="none" stroke="#F4EFE6" stroke-width="0.55" opacity="0.05"/><path d="M0 390 L0 390.0 L8 400.3 L16 408.8 L24 413.9 L32 414.8 L40 411.2 L48 403.8 L56 394.0 L64 383.4 L72 374.0 L80 367.5 L88 365.0 L96 367.0 L104 373.0 L112 382.1 L120 392.7 L128 402.7 L136 410.5 L144 414.6 L152 414.3 L160 409.7 L168 401.5 L176 391.3 L184 380.9 L192 372.1 L200 366.5 L208 365.1 L216 368.1 L224 375.1 L232 384.7 L240 395.3 L248 404.9 L256 411.9 L264 414.9 L272 413.5 L280 407.9 L288 399.1 L296 388.7 L304 378.5 L312 370.3 L320 365.7 L328 365.4 L336 369.5 L344 377.3 L352 387.3 L360 397.9 L368 407.0 L376 413.0 L384 415.0 L392 412.5 L400 406.0 L408 396.6 L416 386.0 L424 376.2 L432 368.8 L440 365.2 L448 366.1 L456 371.2 L464 379.7 L472 390.0 L480 400.3 L488 408.8 L496 413.9 L504 414.8 L512 411.2" fill="none" stroke="#F4EFE6" stroke-width="0.55" opacity="0.05"/><path d="M0 420 L0 420.0 L8 430.2 L16 439.1 L24 445.5 L32 448.7 L40 448.3 L48 444.2 L56 437.0 L64 427.7 L72 417.4 L80 407.4 L88 399.0 L96 393.3 L104 391.0 L112 392.4 L120 397.3 L128 405.1 L136 414.8 L144 425.2 L152 434.9 L160 442.7 L168 447.6 L176 449.0 L184 446.7 L192 441.0 L200 432.6 L208 422.6 L216 412.3 L224 403.0 L232 395.8 L240 391.7 L248 391.3 L256 394.5 L264 400.9 L272 409.8 L280 420.0 L288 430.2 L296 439.1 L304 445.5 L312 448.7 L320 448.3 L328 444.2 L336 437.0 L344 427.7 L352 417.4 L360 407.4 L368 399.0 L376 393.3 L384 391.0 L392 392.4 L400 397.3 L408 405.1 L416 414.8 L424 425.2 L432 434.9 L440 442.7 L448 447.6 L456 449.0 L464 446.7 L472 441.0 L480 432.6 L488 422.6 L496 412.3 L504 403.0 L512 395.8" fill="none" stroke="#F4EFE6" stroke-width="0.55" opacity="0.05"/><path d="M0 450 L0 450.0 L8 454.0 L16 457.6 L24 460.4 L32 462.3 L40 463.0 L48 462.5 L56 460.7 L64 458.0 L72 454.4 L80 450.5 L88 446.5 L96 442.9 L104 439.9 L112 437.9 L120 437.0 L128 437.4 L136 439.0 L144 441.6 L152 445.1 L160 449.0 L168 453.0 L176 456.7 L184 459.8 L192 461.9 L200 462.9 L208 462.7 L216 461.3 L224 458.7 L232 455.4 L240 451.5 L248 447.5 L256 443.7 L264 440.5 L272 438.3 L280 437.1 L288 437.2 L296 438.5 L304 440.9 L312 444.2 L320 448.0 L328 452.0 L336 455.8 L344 459.1 L352 461.5 L360 462.8 L368 462.9 L376 461.7 L384 459.5 L392 456.3 L400 452.5 L408 448.5 L416 444.6 L424 441.3 L432 438.7 L440 437.3 L448 437.1 L456 438.1 L464 440.2 L472 443.3 L480 447.0 L488 451.0 L496 454.9 L504 458.4 L512 461.0" fill="none" stroke="#F4EFE6" stroke-width="0.55" opacity="0.05"/><path d="M0 480 L0 480.0 L8 488.5 L16 494.7 L24 497.0 L32 494.7 L40 488.5 L48 480.0 L56 471.5 L64 465.3 L72 463.0 L80 465.3 L88 471.5 L96 480.0 L104 488.5 L112 494.7 L120 497.0 L128 494.7 L136 488.5 L144 480.0 L152 471.5 L160 465.3 L168 463.0 L176 465.3 L184 471.5 L192 480.0 L200 488.5 L208 494.7 L216 497.0 L224 494.7 L232 488.5 L240 480.0 L248 471.5 L256 465.3 L264 463.0 L272 465.3 L280 471.5 L288 480.0 L296 488.5 L304 494.7 L312 497.0 L320 494.7 L328 488.5 L336 480.0 L344 471.5 L352 465.3 L360 463.0 L368 465.3 L376 471.5 L384 480.0 L392 488.5 L400 494.7 L408 497.0 L416 494.7 L424 488.5 L432 480.0 L440 471.5 L448 465.3 L456 463.0 L464 465.3 L472 471.5 L480 480.0 L488 488.5 L496 494.7 L504 497.0 L512 494.7" fill="none" stroke="#F4EFE6" stroke-width="0.55" opacity="0.05"/><path d="M0 510 L0 510.0 L8 518.7 L16 525.8 L24 530.1 L32 530.8 L40 527.8 L48 521.6 L56 513.3 L64 504.5 L72 496.6 L80 491.1 L88 489.0 L96 490.7 L104 495.8 L112 503.4 L120 512.2 L128 520.7 L136 527.2 L144 530.6 L152 530.4 L160 526.5 L168 519.7 L176 511.1 L184 502.4 L192 495.0 L200 490.2 L208 489.1 L216 491.6 L224 497.5 L232 505.6 L240 514.4 L248 522.5 L256 528.4 L264 530.9 L272 529.8 L280 525.0 L288 517.6 L296 508.9 L304 500.3 L312 493.5 L320 489.6 L328 489.4 L336 492.8 L344 499.3 L352 507.8 L360 516.6 L368 524.2 L376 529.3 L384 531.0 L392 528.9 L400 523.4 L408 515.5 L416 506.7 L424 498.4 L432 492.2 L440 489.2 L448 489.9 L456 494.2 L464 501.3 L472 510.0 L480 518.7 L488 525.8 L496 530.1 L504 530.8 L512 527.8" fill="none" stroke="#F4EFE6" stroke-width="0.55" opacity="0.05"/><path d="M0 540 L0 540.0 L8 548.8 L16 556.4 L24 562.0 L32 564.8 L40 564.4 L48 560.9 L56 554.7 L64 546.7 L72 537.8 L80 529.2 L88 521.9 L96 517.0 L104 515.0 L112 516.2 L120 520.5 L128 527.2 L136 535.5 L144 544.5 L152 552.8 L160 559.5 L168 563.8 L176 565.0 L184 563.0 L192 558.1 L200 550.8 L208 542.2 L216 533.3 L224 525.3 L232 519.1 L240 515.6 L248 515.2 L256 518.0 L264 523.6 L272 531.2 L280 540.0 L288 548.8 L296 556.4 L304 562.0 L312 564.8 L320 564.4 L328 560.9 L336 554.7 L344 546.7 L352 537.8 L360 529.2 L368 521.9 L376 517.0 L384 515.0 L392 516.2 L400 520.5 L408 527.2 L416 535.5 L424 544.5 L432 552.8 L440 559.5 L448 563.8 L456 565.0 L464 563.0 L472 558.1 L480 550.8 L488 542.2 L496 533.3 L504 525.3 L512 519.1" fill="none" stroke="#F4EFE6" stroke-width="0.55" opacity="0.05"/>
<g transform="translate(120 120) scale(2.15)"><g transform="scale(1)" fill="#F4EFE6">
<path d="M50 13 L14 102" stroke="#F4EFE6" stroke-width="6" fill="none"/>
<path d="M50 13 L86 102" stroke="#F4EFE6" stroke-width="13" fill="none"/>
<rect x="42" y="10" width="16" height="7"/><rect x="30" y="56" width="38" height="6"/>
<path d="M51 62 H68 L43 94 H26 Z"/><rect x="26" y="94" width="46" height="6"/>
<rect x="4" y="102" width="21" height="5"/>
<g transform="translate(73 113) rotate(6)"><rect width="26" height="5"/></g></g></g></svg>