<svg xmlns="http://www.w3.org/2000/svg" viewBox="0 0 600 470">
<g transform="translate(218 30) scale(1.28)"><g transform="translate(14 0)" fill="#0C0B09">
<path d="M50 13 L14 102" stroke="#0C0B09" stroke-width="6" fill="none"></path>
<path d="M50 13 L86 102" stroke="#0C0B09" stroke-width="13" fill="none"></path>
<rect x="42" y="10" width="16" height="7"></rect>
<rect x="30" y="56" width="38" height="6"></rect>
<path d="M51 62 H68 L43 94 H26 Z"></path>
<rect x="26" y="94" width="46" height="6"></rect>
<rect x="4" y="102" width="21" height="5"></rect>
<g transform="translate(73 113) rotate(6)"><rect width="26" height="5"></rect></g>
</g></g>
<text x="300" y="302" text-anchor="middle" font-family="&#39;Marcellus&#39;, &#39;Trajan Pro&#39;, &#39;Times New Roman&#39;, serif" font-size="74" font-weight="400" letter-spacing="5.92" fill="#0C0B09">APIxyz</text>
<polygon points="410.6,268.0 425.4,268.0 425.4,282.8" fill="#F4EFE6"></polygon>
<g transform="translate(427.7 282.0) rotate(42)"><polygon points="0,0 10.3,0 10.3,10.3" fill="#0C0B09"></polygon></g>
<text x="300" y="372" text-anchor="middle" font-family="&#39;Marcellus&#39;, &#39;Trajan Pro&#39;, &#39;Times New Roman&#39;, serif" font-size="19" font-weight="400" letter-spacing="7.9799999999999995" fill="#0C0B09">PUBLIC WEB DATA, FROM A TO Z.</text>
<g transform="translate(234 412)"><path d="M0 9 H11 V0 H22 V9 H33 V0 H44 V9 H55 V0 H66 V9 H77 V0 H88 V9 H99 V0 H110 V9 H121 V0 H132 V9 H132" fill="none" stroke="#0C0B09" stroke-width="2"></path></g>
</svg>